# Blender 4.0.2
# www.blender.org
mtllib basic_bullets.mtl
o left
v -1.531231 2.703735 -0.070325
v 1.531231 2.703735 -0.070325
v -1.531231 2.703735 0.070325
v -1.531231 2.563086 -0.070325
v 1.531231 2.563086 -0.070325
v -1.531231 2.563086 0.070325
v 1.531231 2.563086 0.070325
v 1.531231 2.703735 0.070325
vn -0.0000 -0.0000 -1.0000
vn -0.0000 1.0000 -0.0000
vn -1.0000 -0.0000 -0.0000
vn -0.0000 -1.0000 -0.0000
vn -0.0000 -0.0000 1.0000
vn 1.0000 -0.0000 -0.0000
vt 0.125000 0.500000
vt 0.375000 0.500000
vt 0.375000 0.750000
vt 0.125000 0.750000
vt 0.375000 0.000000
vt 0.625000 0.000000
vt 0.625000 0.250000
vt 0.375000 0.250000
vt 0.625000 0.750000
vt 0.625000 1.000000
vt 0.375000 1.000000
vt 0.625000 0.500000
vt 0.875000 0.500000
vt 0.875000 0.750000
s 0
f 2/1/1 5/2/1 4/3/1 1/4/1
f 1/5/2 3/6/2 8/7/2 2/8/2
f 4/3/3 6/9/3 3/10/3 1/11/3
f 5/2/4 7/12/4 6/9/4 4/3/4
f 7/12/5 8/13/5 3/14/5 6/9/5
f 2/8/6 8/7/6 7/12/6 5/2/6
o right
v -1.531231 -2.703735 -0.070325
v 1.531231 -2.703735 -0.070325
v -1.531231 -2.703735 0.070325
v -1.531231 -2.563086 -0.070325
v -1.531231 -2.563086 0.070325
v 1.531231 -2.563086 -0.070325
v 1.531231 -2.563086 0.070325
v 1.531231 -2.703735 0.070325
vn -0.0000 -1.0000 -0.0000
vn -0.0000 -0.0000 -1.0000
vn -1.0000 -0.0000 -0.0000
vn -0.0000 1.0000 -0.0000
vn 1.0000 -0.0000 -0.0000
vn -0.0000 -0.0000 1.0000
vt 0.375000 0.000000
vt 0.375000 0.250000
vt 0.625000 0.250000
vt 0.625000 0.000000
vt 0.125000 0.500000
vt 0.125000 0.750000
vt 0.375000 0.750000
vt 0.375000 0.500000
vt 0.375000 1.000000
vt 0.625000 1.000000
vt 0.625000 0.750000
vt 0.625000 0.500000
vt 0.875000 0.750000
vt 0.875000 0.500000
s 0
f 9/15/7 10/16/7 16/17/7 11/18/7
f 10/19/8 9/20/8 12/21/8 14/22/8
f 12/21/9 9/23/9 11/24/9 13/25/9
f 14/22/10 12/21/10 13/25/10 15/26/10
f 10/16/11 14/22/11 15/26/11 16/17/11
f 15/26/12 13/25/12 11/27/12 16/28/12
