# Blender 4.0.2
# www.blender.org
mtllib bullets_1.mtl
o Cube.001
v -1.531231 2.703735 -0.070325
v 1.531231 2.703735 -0.070325
v -1.531231 2.703735 0.070325
v -1.531231 2.563086 -0.070325
v 1.531231 2.563086 -0.070325
v -1.531231 2.563086 0.070325
v 1.531231 2.563086 0.070325
v 1.531231 2.703735 0.070325
v -1.531231 -2.703735 -0.070325
v 1.531231 -2.703735 -0.070325
v -1.531231 -2.703735 0.070325
v -1.531231 -2.563086 -0.070325
v 1.531231 -2.563086 -0.070325
v -1.531231 -2.563086 0.070325
v 1.531231 -2.563086 0.070325
v 1.531231 -2.703735 0.070325
vn -0.0000 -0.0000 -1.0000
vn -0.0000 1.0000 -0.0000
vn -1.0000 -0.0000 -0.0000
vn -0.0000 -1.0000 -0.0000
vn -0.0000 -0.0000 1.0000
vn 1.0000 -0.0000 -0.0000
vt 0.125000 0.500000
vt 0.375000 0.500000
vt 0.375000 0.750000
vt 0.125000 0.750000
vt 0.375000 0.000000
vt 0.625000 0.000000
vt 0.625000 0.250000
vt 0.375000 0.250000
vt 0.625000 0.750000
vt 0.625000 1.000000
vt 0.375000 1.000000
vt 0.625000 0.500000
vt 0.875000 0.500000
vt 0.875000 0.750000
s 0
f 2/1/1 5/2/1 4/3/1 1/4/1
f 1/5/2 3/6/2 8/7/2 2/8/2
f 4/3/3 6/9/3 3/10/3 1/11/3
f 5/2/4 7/12/4 6/9/4 4/3/4
f 7/12/5 8/13/5 3/14/5 6/9/5
f 2/8/6 8/7/6 7/12/6 5/2/6
f 10/1/1 9/4/1 12/3/1 13/2/1
f 9/5/4 10/8/4 16/7/4 11/6/4
f 12/3/3 9/11/3 11/10/3 14/9/3
f 13/2/2 12/3/2 14/9/2 15/12/2
f 15/12/5 14/9/5 11/14/5 16/13/5
f 10/8/6 13/2/6 15/12/6 16/7/6
