# Blender 4.0.0
# www.blender.org
mtllib mountains.mtl
o mountains
v 40.011204 -25.017572 3.892257
v 40.011189 24.982428 3.892257
v -39.988792 -25.017599 3.892257
v -39.988808 24.982401 3.892257
v 40.011204 -25.017572 3.892257
v 40.011189 24.982428 3.892257
v -39.988792 -25.017599 3.892257
v -39.988808 24.982401 3.892257
v 0.011207 -25.017586 3.892257
v 40.011196 -0.017572 -0.757409
v 0.011190 24.982414 3.892257
v -39.990383 -0.020389 -0.576112
v 40.011204 -25.017572 3.892257
v 40.011189 24.982428 3.892257
v -39.988792 -25.017599 3.892257
v -39.988808 24.982401 3.892257
v 0.007191 0.019382 -0.668406
v 20.011206 -25.017580 3.892257
v 40.011192 12.482428 3.892257
v -19.988810 24.982409 3.892257
v -39.988796 -12.517598 3.892257
v 40.011204 -25.017572 3.892257
v 40.011189 24.982428 3.892257
v -39.988792 -25.017599 3.892257
v -39.988808 24.982401 3.892257
v -19.988794 -25.017591 3.892257
v 40.011200 -12.517571 3.892257
v 20.011190 24.982420 3.892257
v -39.988804 12.482401 3.892257
v 40.011204 -25.017572 3.892257
v 40.011189 24.982428 3.892257
v -39.988792 -25.017599 3.892257
v -39.988808 24.982401 3.892257
v -19.988802 -0.017592 -0.757409
v 20.021288 -0.007309 -0.458086
v -0.055021 -12.313828 9.862875
v -0.047697 12.187166 8.260799
v 19.997347 12.252523 8.132005
v 20.057318 -12.438656 8.076456
v -19.985016 -12.474100 7.910021
v -19.972330 12.240481 8.159473
v 30.011206 -25.017576 3.892257
v 40.011189 18.732428 3.892257
v -29.988810 24.982405 3.892257
v -39.988792 -18.767599 3.892257
v 40.011204 -25.017572 3.892257
v 40.011189 24.982428 3.892257
v -39.988792 -25.017599 3.892257
v -39.988808 24.982401 3.892257
v -9.988793 -25.017590 3.892257
v 40.677788 -5.600983 0.227872
v 10.011189 24.982418 3.892257
v -40.031528 6.124204 -0.511029
v 40.011204 -25.017572 3.892257
v 40.011189 24.982428 3.892257
v -39.988792 -25.017599 3.892257
v -39.988808 24.982401 3.892257
v -29.988794 -0.017936 -0.756960
v 10.004732 0.020722 -0.493656
v -0.273865 -19.323271 8.658781
v 0.011196 6.232415 -0.757409
v 10.011207 -25.017582 3.892257
v 40.011192 6.232428 -0.757409
v -9.988811 24.982410 3.892257
v -39.988796 -6.267599 -0.757409
v 40.011204 -25.017572 3.892257
v 40.011189 24.982428 3.892257
v -39.988792 -25.017599 3.892257
v -39.988808 24.982401 3.892257
v -29.988794 -25.017595 3.892257
v 40.011204 -18.767572 3.892257
v 30.011190 24.982424 3.892257
v -39.988808 18.732401 3.892257
v 40.011204 -25.017572 3.892257
v 40.011189 24.982428 3.892257
v -39.988792 -25.017599 3.892257
v -39.988808 24.982401 3.892257
v -9.988802 -0.017589 -0.757409
v 30.011198 -0.016197 -0.717492
v -0.032228 -5.866932 0.207209
v -0.304293 20.116259 10.437776
v 10.286367 11.573571 15.637213
v 30.031078 12.160254 4.620038
v 19.817858 3.867986 -0.111652
v 20.011192 18.732420 8.260410
v 9.948612 -11.895614 8.165456
v 30.011202 -12.517575 15.917861
v 20.005201 -18.608856 8.489063
v 20.022711 -6.255189 -0.406711
v -29.992212 -12.517380 14.705516
v -10.047449 -11.042397 8.644881
v -20.292082 -19.260775 8.711764
v -19.988800 -5.880944 -0.757409
v -30.047134 12.469599 7.942010
v -9.967259 12.123180 11.777981
v -20.030987 4.988836 0.141780
v -20.258705 21.433439 8.865445
v -10.250577 21.151239 8.710768
v -9.988804 6.232411 -0.757409
v -29.991486 6.053369 -0.531063
v -9.988800 -5.800018 -0.757409
v -9.973500 -19.490469 8.819933
v -30.007246 -18.766436 7.943856
v 30.011200 -6.182896 -0.343119
v 30.011204 -18.767576 7.931273
v 10.125474 -20.071646 15.663934
v 30.100538 19.089949 8.393186
v 30.009714 5.648488 -0.304567
v 9.829206 5.519004 -0.145152
v 10.011192 18.732418 11.133800
v 10.002117 -6.178697 -0.521150
v -29.988800 -5.963330 -0.757409
v -30.071503 18.908625 9.922077
v 35.011208 -25.017574 3.892257
v 40.011189 21.857428 3.892257
v -34.988808 24.982403 3.892257
v -39.988792 -21.892599 3.892257
v 40.011204 -25.017572 3.892257
v 40.011189 24.982428 3.892257
v -39.988792 -25.017599 3.892257
v -39.988808 24.982401 3.892257
v -4.988793 -25.017588 3.892257
v 40.099495 -3.054267 -0.626886
v 5.011190 24.982416 3.892257
v -40.031242 3.002649 -0.507185
v 40.011204 -25.017572 3.892257
v 40.011189 24.982428 3.892257
v -39.988792 -25.017599 3.892257
v -39.988808 24.982401 3.892257
v -35.000633 -0.046085 -0.658067
v 5.003526 0.053183 -0.587030
v 0.011206 -21.892586 7.892257
v 0.011198 3.107415 -0.757409
v 15.011207 -25.017580 3.892257
v 40.011192 9.357428 3.892257
v -14.988811 24.982409 3.892257
v -39.988796 -9.392599 3.892257
v 40.011204 -25.017572 3.892257
v 40.011189 24.982428 3.892257
v -39.988792 -25.017599 3.892257
v -39.988808 24.982401 3.892257
v -24.988794 -25.017593 3.892257
v 40.011200 -15.642571 3.892257
v 25.011190 24.982422 3.892257
v -39.988804 15.607402 3.892257
v 40.011204 -25.017572 3.892257
v 40.011189 24.982428 3.892257
v -39.988792 -25.017599 3.892257
v -39.988808 24.982401 3.892257
v -14.988802 -0.017590 -0.757409
v 25.011566 -0.017210 -0.375862
v 0.189858 -8.061049 9.771544
v -0.100022 15.105560 11.911036
v 5.136713 12.081982 15.286708
v 25.011963 12.300395 4.473724
v 19.989796 3.053342 -0.716840
v 20.360466 15.462254 8.926532
v 5.225631 -11.484127 8.275884
v 25.011202 -12.517576 15.917861
v 20.011206 -21.892580 7.892257
v 20.011202 -9.392579 7.892257
v -35.343563 -12.517596 14.547956
v -15.398052 -11.385188 4.363264
v -19.988794 -21.892591 7.892257
v -19.860628 -8.627674 8.078703
v -34.988804 12.482403 7.892257
v -15.180058 12.048562 8.229198
v -19.998434 2.733913 -0.358375
v -19.929201 15.621501 9.465413
v 25.011206 -25.017578 3.892257
v 40.011192 15.607429 3.892257
v -24.988810 24.982407 3.892257
v -39.988796 -15.642598 3.892257
v 40.011204 -25.017572 3.892257
v 40.011189 24.982428 3.892257
v -39.988792 -25.017599 3.892257
v -39.988808 24.982401 3.892257
v -14.988793 -25.017591 3.892257
v 40.204388 -9.199389 4.177800
v 15.011189 24.982420 3.892257
v -39.988804 9.357401 3.892257
v 40.011204 -25.017572 3.892257
v 40.011189 24.982428 3.892257
v -39.988792 -25.017599 3.892257
v -39.988808 24.982401 3.892257
v -24.988815 -0.018953 -0.755562
v 15.011646 -0.002389 -0.552658
v -0.726564 -14.762203 9.960669
v 0.042319 8.887650 8.040652
v 5.011207 -25.017584 3.892257
v 40.011196 3.107428 -0.757409
v -4.988810 24.982412 3.892257
v -39.988800 -3.142598 -0.757409
v 40.011204 -25.017572 3.892257
v 40.011189 24.982428 3.892257
v -39.988792 -25.017599 3.892257
v -39.988808 24.982401 3.892257
v -34.988792 -25.017597 3.892257
v 40.011204 -21.892572 3.892257
v 35.011192 24.982426 3.892257
v -39.988808 21.857401 3.892257
v 40.011204 -25.017572 3.892257
v 40.011189 24.982428 3.892257
v -39.988792 -25.017599 3.892257
v -39.988808 24.982401 3.892257
v -4.988801 -0.017587 -0.757409
v 35.011200 -0.017574 -0.757409
v -0.035039 -2.715986 0.269678
v 0.007505 22.746639 8.043051
v 15.149801 12.024626 8.195763
v 35.065334 12.385627 8.035078
v 19.997601 9.071727 8.190061
v 20.011190 21.857420 7.892257
v 15.002247 -12.092672 8.483263
v 35.011204 -12.517573 7.892257
v 19.912422 -15.322263 9.204216
v 20.016241 -3.131052 -0.519928
v -25.128357 -12.508821 8.282502
v -4.988797 -12.517587 13.507903
v -18.730270 -15.798309 10.302177
v -19.988800 -3.142592 -0.757409
v -25.114223 12.234251 8.282692
v -5.034935 11.824489 11.697126
v -19.988806 9.357408 7.892257
v -19.991203 21.902674 7.953307
v -15.208631 21.269970 8.631708
v -5.116107 19.195362 10.029169
v -10.600827 15.599287 9.227797
v -10.007380 21.902185 7.929722
v -14.989141 6.219303 -0.743577
v -4.988803 6.232413 -0.757409
v -9.988803 3.107411 -0.757409
v -10.015572 9.012593 11.378436
v -34.984650 6.057390 -0.557724
v -25.012905 5.298033 0.228524
v -29.989592 2.964339 -0.572231
v -30.061977 9.058484 8.057455
v -14.988800 -6.254711 -0.660794
v -4.989622 -6.259994 -0.739129
v -9.988799 -9.392589 7.892257
v -9.988801 -3.136398 -0.751022
v -14.937184 -20.053070 8.905096
v -5.002957 -19.325947 8.631762
v -9.992047 -21.948418 7.958579
v -10.113053 -15.402804 10.464731
v -34.988792 -18.767597 7.892257
v -25.045794 -18.770367 8.066624
v -29.988794 -21.892595 7.892257
v -30.051760 -15.638637 14.357944
v 25.011444 -6.267334 -0.413857
v 35.236500 -6.042278 -0.424400
v 30.011202 -9.392576 9.826487
v 30.011200 -3.142576 -0.439525
v 25.273760 -19.114449 8.628315
v 35.011208 -18.767574 7.892257
v 30.011206 -21.892576 7.892257
v 30.011204 -15.642575 14.045455
v 4.464635 -19.790594 8.737728
v 15.296483 -19.484362 14.876508
v 10.011205 -21.892582 7.892257
v 10.027497 -15.271655 15.309453
v 25.169708 19.289150 8.304598
v 35.697479 18.928339 8.178344
v 30.254951 15.606898 4.890472
v 30.011190 21.857424 7.892257
v 24.858160 4.087734 -0.152711
v 35.011196 6.232426 -0.757409
v 30.011196 3.107424 -0.757409
v 30.046917 8.778664 8.495347
v 5.002394 5.946814 -0.463099
v 14.819803 5.476659 -0.116074
v 9.970443 2.924964 -0.596380
v 10.022359 9.302275 15.077479
v 5.083109 19.136560 8.365356
v 15.057607 19.213287 11.094110
v 10.208861 15.337720 12.744458
v 10.011191 21.857418 7.892257
v 4.949579 -5.343230 0.611355
v 15.011095 -6.238361 -0.359551
v 9.992595 -7.866434 8.235143
v 9.999827 -3.037663 -0.504806
v -34.988796 -6.267597 -0.757409
v -24.988800 -5.969790 -0.757409
v -29.984238 -9.380461 7.896920
v -29.988800 -3.142595 -0.757409
v -34.988808 18.732403 7.892257
v -25.592102 21.771549 10.575422
v -31.089628 15.524003 10.360671
v -30.000788 21.869383 7.955483
v -25.001995 21.890409 7.948229
v -27.589041 15.354375 11.363029
v -35.044617 15.595150 7.939863
v -24.988800 -3.097701 -0.757409
v -24.404247 -7.542139 8.481024
v -34.988796 -9.392597 7.892257
v 15.009206 -3.126567 -0.516532
v 15.008594 -9.178476 7.940361
v 4.993691 -7.956665 8.214870
v 15.011191 21.857420 7.892257
v 15.068137 15.212257 12.724147
v 5.365841 15.062475 10.098259
v 14.997224 9.143311 8.114912
v 14.966866 2.942785 -0.617910
v 5.009390 2.872675 -0.515309
v 35.230675 9.229291 8.066626
v 35.011200 3.107426 -0.757409
v 25.011196 3.107423 -0.757409
v 35.011192 21.857426 7.892257
v 35.011196 15.607427 7.892257
v 25.565039 15.359388 5.217781
v 15.077302 -14.476150 15.838561
v 15.011205 -21.892580 7.892257
v 5.011206 -21.892584 7.892257
v 35.559574 -15.611184 8.298613
v 35.011208 -21.892574 7.892257
v 25.011206 -21.892578 7.892257
v 35.011608 -3.142163 -0.756802
v 35.011204 -9.392574 7.892257
v 25.011202 -9.392577 9.826487
v -25.358023 -15.619382 8.924734
v -24.988939 -21.892712 7.892971
v -34.988792 -21.892597 7.892257
v -4.896946 -15.137282 13.862008
v -4.988794 -21.892588 7.892257
v -15.018448 -22.103666 8.134707
v -4.989962 -3.131868 -0.731601
v -4.988799 -9.392588 9.403605
v -14.988799 -9.392591 7.892257
v -24.988806 9.357406 7.892257
v -24.999947 2.675332 -0.301491
v -34.983959 2.925778 -0.540447
v -4.988463 8.773425 11.426471
v -4.988802 3.107413 -0.757409
v -14.988803 3.107410 -0.755280
v -4.988809 21.857412 7.892257
v -5.987039 15.213549 11.337408
v -15.291173 15.534105 9.760935
v -14.991996 21.898546 7.945830
v -15.111381 8.880477 8.123631
v -35.217224 9.128983 8.040430
v -14.988801 -3.142590 -0.757409
v -14.655805 -16.069181 5.052833
v -35.461372 -15.642596 14.730507
v 25.014423 -3.139354 -0.489404
v 25.199312 -15.880584 14.611497
v 4.283335 -14.893352 8.901584
v 25.015230 21.871613 7.902767
v 25.013655 8.940996 8.325569
v 5.011196 9.357416 15.034669
v 5.011191 21.857416 7.892257
v 4.951151 -2.588592 0.576388
v -34.988800 -3.142597 -0.757409
v -34.988808 21.857403 7.892257
v 40.011204 -25.017572 -28.286781
v 40.011189 24.982428 -28.286781
v -39.988792 -25.017599 -28.286781
v -39.988808 24.982401 -28.286781
v 0.011207 -25.017586 -28.286781
v 40.011196 -0.017572 -28.286781
v 0.011190 24.982414 -28.286781
v -39.990383 -0.020389 -28.105488
v 20.011206 -25.017580 -28.286781
v 40.011192 12.482428 -28.286781
v -19.988810 24.982409 -28.286781
v -39.988796 -12.517598 -28.286781
v -19.988794 -25.017591 -28.286781
v 40.011200 -12.517571 -28.286781
v 20.011190 24.982420 -28.286781
v -39.988804 12.482401 -28.286781
v 30.011206 -25.017576 -28.286781
v 40.011189 18.732428 -28.286781
v -29.988810 24.982405 -28.286781
v -39.988792 -18.767599 -28.286781
v -9.988793 -25.017590 -28.286781
v 40.677788 -5.600983 -27.432022
v 10.011189 24.982418 -28.286781
v -40.031528 6.124204 -28.040401
v 10.011207 -25.017582 -28.286781
v 40.011192 6.232428 -28.286781
v -9.988811 24.982410 -28.286781
v -39.988796 -6.267599 -28.286781
v -29.988794 -25.017595 -28.286781
v 40.011204 -18.767572 -28.286781
v 30.011190 24.982424 -28.286781
v -39.988808 18.732401 -28.286781
v 35.011208 -25.017574 -28.286781
v 40.011189 21.857428 -28.286781
v -34.988808 24.982403 -28.286781
v -39.988792 -21.892599 -28.286781
v -4.988793 -25.017588 -28.286781
v 40.099495 -3.054267 -28.286781
v 5.011190 24.982416 -28.286781
v -40.031242 3.002649 -28.036560
v 15.011207 -25.017580 -28.286781
v 40.011192 9.357428 -28.286781
v -14.988811 24.982409 -28.286781
v -39.988796 -9.392599 -28.286781
v -24.988794 -25.017593 -28.286781
v 40.011200 -15.642571 -28.286781
v 25.011190 24.982422 -28.286781
v -39.988804 15.607402 -28.286781
v 25.011206 -25.017578 -28.286781
v 40.011192 15.607429 -28.286781
v -24.988810 24.982407 -28.286781
v -39.988796 -15.642598 -28.286781
v -14.988793 -25.017591 -28.286781
v 40.204388 -9.199389 -28.001240
v 15.011189 24.982420 -28.286781
v -39.988804 9.357401 -28.286781
v 5.011207 -25.017584 -28.286781
v 40.011196 3.107428 -28.286781
v -4.988810 24.982412 -28.286781
v -39.988800 -3.142598 -28.286781
v -34.988792 -25.017597 -28.286781
v 40.011204 -21.892572 -28.286781
v 35.011192 24.982426 -28.286781
v -39.988808 21.857401 -28.286781
vn -0.3193 0.5108 0.7982
vn 0.0081 -0.0451 0.9990
vn -0.0421 0.3643 0.9303
vn 0.0823 0.8326 0.5477
vn -0.8087 -0.0412 0.5867
vn 0.2923 0.4908 0.8208
vn -0.0018 0.7891 0.6143
vn 0.2454 0.0520 0.9680
vn -0.7915 -0.0229 0.6107
vn -0.0113 -0.0281 0.9995
vn -0.9194 0.0288 0.3923
vn 0.6303 0.4107 0.6588
vn -0.0000 -0.0000 1.0000
vn -0.6394 0.0401 0.7679
vn -0.0353 -0.0618 0.9975
vn 0.0008 0.7963 0.6049
vn -0.0025 0.1480 0.9890
vn -0.2777 0.2148 0.9363
vn 0.0058 0.7915 0.6111
vn 0.1406 -0.0931 0.9857
vn -0.0026 -0.1081 0.9941
vn 0.0080 0.0034 1.0000
vn -0.1126 -0.0992 0.9887
vn -0.0172 -0.0440 0.9989
vn 0.1115 0.9416 0.3178
vn -0.0082 0.9415 0.3369
vn -0.0019 0.0052 1.0000
vn -0.0713 -0.3237 0.9435
vn 0.0310 -0.3034 0.9523
vn -0.5914 0.2377 0.7705
vn -0.6247 -0.0000 0.7809
vn -0.0124 -0.0362 0.9993
vn 0.7785 -0.0065 0.6276
vn -0.0605 0.9457 0.3194
vn 0.0530 0.9409 0.3345
vn 0.0357 0.0445 0.9984
vn -0.0238 -0.2137 0.9766
vn 0.0039 -0.0062 1.0000
vn 0.7919 -0.0731 0.6063
vn -0.0235 -0.3299 0.9437
vn 0.0765 -0.9590 0.2728
vn -0.0857 0.9256 0.3686
vn 0.3315 -0.2697 0.9041
vn -0.2377 -0.4583 0.8564
vn -0.0000 0.7880 0.6156
vn 0.0219 -0.5561 0.8308
vn 0.0497 -0.0796 0.9956
vn -0.2745 0.4876 0.8288
vn -0.0541 -0.0085 0.9985
vn -0.0012 -0.1828 0.9832
vn 0.8194 -0.1355 0.5569
vn 0.3456 0.3287 0.8789
vn -0.0088 0.4011 0.9160
vn -0.0300 0.9624 0.2700
vn 0.1343 0.9563 0.2596
vn 0.0071 0.0040 1.0000
vn -0.1677 0.8922 0.4193
vn -0.1787 0.9462 0.2697
vn -0.0001 -0.0004 1.0000
vn -0.6290 0.0115 0.7773
vn -0.2630 0.1990 0.9440
vn -0.0012 0.7945 0.6072
vn -0.2825 0.8151 0.5058
vn 0.0602 0.9822 0.1778
vn -0.0013 0.7960 0.6053
vn -0.1447 -0.7028 0.6966
vn 0.1443 -0.5158 0.8445
vn 0.2672 0.0726 0.9609
vn -0.6290 -0.0116 0.7773
vn -0.2490 -0.3975 0.8832
vn -0.4453 0.1393 0.8845
vn 0.0002 -0.0003 1.0000
vn 0.3158 0.5825 0.7490
vn 0.0744 -0.0487 0.9960
vn 0.1106 0.9676 0.2269
vn -0.7059 0.5348 0.4645
vn -0.0077 0.9068 0.4215
vn -0.0297 0.9350 0.3535
vn -0.0146 0.0225 0.9996
vn 0.0051 0.0433 0.9990
vn -0.0091 -0.0041 1.0000
vn 0.0079 0.0679 0.9977
vn 0.0516 0.1213 0.9913
vn 0.0249 0.9387 0.3437
vn 0.2960 0.0182 0.9550
vn 0.0092 -0.0009 1.0000
vn 0.0993 0.9624 0.2528
vn -0.0330 0.7445 0.6668
vn 0.2582 0.5099 0.8206
vn 0.6036 -0.1695 0.7791
vn 0.3053 -0.6170 0.7254
vn 0.5261 0.2797 0.8031
vn -0.4240 0.2404 0.8732
vn -0.1711 0.7580 0.6294
vn -0.4524 0.3400 0.8245
vn 0.1862 -0.9373 0.2948
vn -0.1499 -0.8699 0.4700
vn -0.0011 -0.0037 1.0000
vn 0.0081 0.0288 0.9996
vn -0.0001 0.0539 0.9985
vn -0.0384 -0.3170 0.9477
vn -0.0323 0.0030 0.9995
vn -0.0012 0.0054 1.0000
vn -0.0275 -0.0892 0.9956
vn 0.1233 -0.9379 0.3243
vn 0.1842 -0.8960 0.4041
vn 0.6495 0.0209 0.7601
vn 0.0040 0.0064 1.0000
vn -0.0046 0.1029 0.9947
vn 0.0341 0.0673 0.9972
vn 0.0581 -0.2848 0.9568
vn 0.0222 0.1398 0.9899
vn 0.6619 0.1101 0.7414
vn 0.3193 0.5108 0.7982
vn -0.5481 -0.0021 0.8364
vn 0.6332 0.0228 0.7737
vn 0.6599 -0.1033 0.7442
vn 0.5615 -0.2737 0.7809
vn 0.0201 -0.1564 0.9875
vn 0.0219 -0.6633 0.7480
vn 0.0334 -0.0607 0.9976
vn 0.8035 -0.0888 0.5887
vn 0.4325 0.7644 0.4782
vn -0.0000 -0.7880 0.6156
vn 0.4184 -0.7337 0.5354
vn -0.2746 -0.8803 0.3870
vn 0.3500 -0.6892 0.6344
vn 0.6607 -0.1058 0.7432
vn 0.6610 0.1068 0.7428
vn 0.3193 -0.5108 0.7982
vn 0.6247 -0.0000 0.7809
vn 0.0755 -0.1331 0.9882
vn 0.0378 0.0734 0.9966
vn -0.0826 0.2006 0.9762
vn -0.0131 0.0211 0.9997
vn 0.5807 0.5682 0.5830
vn 0.6033 -0.0534 0.7958
vn 0.0909 0.8643 0.4948
vn -0.5654 0.5860 0.5804
vn -0.0000 0.8897 0.4565
vn -0.0102 0.9550 0.2964
vn 0.3439 -0.7023 0.6233
vn -0.1840 -0.3105 0.9326
vn -0.0723 0.4160 0.9065
vn -0.0001 -0.7881 0.6156
vn 0.0001 -0.7881 0.6156
vn -0.0736 -0.1741 0.9820
vn -0.3193 -0.5108 0.7982
vn -0.0052 -0.0083 1.0000
vn -0.2104 -0.6252 0.7516
vn 0.3527 -0.5508 0.7565
vn 0.6383 -0.0044 0.7698
vn 0.0085 -0.7931 0.6090
vn -0.0026 -0.2815 0.9596
vn -0.0314 -0.8063 0.5906
vn 0.0228 -0.8112 0.5843
vn 0.0490 -0.3409 0.9388
vn -0.0039 -0.0024 1.0000
vn -0.1919 -0.0110 0.9813
vn -0.1148 0.1623 0.9800
vn -0.3203 0.6775 0.6622
vn 0.2040 0.4788 0.8539
vn -0.1945 0.9464 0.2580
vn 0.3276 -0.5267 0.7844
vn -0.3028 -0.5528 0.7763
vn -0.0388 0.9306 0.3641
vn -0.0651 -0.9152 0.3976
vn -0.0230 -0.8771 0.4797
vn 0.0121 -0.1132 0.9935
vn -0.0303 -0.1118 0.9933
vn 0.0067 -0.1547 0.9879
vn 0.0089 -0.2066 0.9784
vn 0.0112 -0.0311 0.9995
vn 0.0134 -0.0507 0.9986
vn 0.0005 -0.0038 1.0000
vn -0.0243 -0.9766 0.2137
vn 0.0918 -0.9666 0.2392
vn 0.5638 -0.0516 0.8243
vn -0.0090 0.0143 0.9999
vn 0.0421 -0.0680 0.9968
vn 0.0016 -0.0019 1.0000
vn 0.0315 0.6475 0.7614
vn -0.1622 0.6495 0.7428
vn -0.0823 0.8327 0.5476
vn -0.1705 0.3509 0.9208
vn 0.2404 -0.4186 0.8758
vn -0.1098 0.3011 0.9472
vn -0.0471 -0.3819 0.9230
vn -0.2910 0.1079 0.9506
vn 0.0473 0.1424 0.9887
vn 0.0274 0.8200 0.5717
vn 0.0041 0.7278 0.6857
vn 0.0007 0.7955 0.6060
vn 0.0952 -0.9166 0.3882
vn -0.0663 -0.9660 0.2498
vn -0.5486 -0.0688 0.8333
vn -0.2040 -0.8820 0.4247
vn -0.0084 -0.9428 0.3332
vn -0.0063 0.0392 0.9992
vn -0.0090 0.0165 0.9998
vn 0.0083 0.0156 0.9998
vn -0.0006 0.0010 1.0000
vn 0.4802 0.1440 0.8653
vn -0.4980 0.2369 0.8342
vn -0.7001 0.1418 0.6998
vn -0.7040 -0.5478 0.4520
vn 0.0136 -0.9041 0.4271
vn 0.0200 -0.0270 0.9994
vn -0.0023 0.0302 0.9995
vn -0.0123 0.0279 0.9995
vn 0.0292 0.0263 0.9992
vn -0.3999 -0.6617 0.6342
vn 0.1150 -0.8790 0.4627
vn 0.0624 -0.4377 0.8970
vn 0.0900 -0.1466 0.9851
vn -0.7601 -0.0091 0.6497
vn -0.3092 0.7331 0.6058
vn -0.0128 0.1333 0.9910
vn -0.0042 0.1662 0.9861
vn 0.0018 0.7891 0.6143
vn 0.0028 -0.8578 0.5140
vn 0.1230 -0.9014 0.4151
vn 0.0020 0.7536 0.6574
vn -0.1575 -0.9580 0.2395
vn -0.0561 -0.9720 0.2280
vn -0.0469 -0.1566 0.9865
vn 0.2633 0.4465 0.8552
vn -0.2092 0.5226 0.8265
vn -0.0708 -0.0047 0.9975
vn 0.2144 0.0031 0.9767
vn 0.1052 0.1960 0.9749
vn 0.0099 -0.0160 0.9998
vn -0.2025 0.3032 0.9311
vn -0.0048 0.7909 0.6119
vn -0.0000 1.0000 -0.0000
vn 1.0000 -0.0000 -0.0000
vn -0.9999 0.0132 -0.0000
vn -1.0000 -0.0000 -0.0000
vn -0.0000 -1.0000 -0.0000
vn -1.0000 -0.0005 -0.0000
vn 0.9752 0.2214 -0.0000
vn -1.0000 -0.0001 -0.0000
vn 0.9983 -0.0581 -0.0000
vn 0.9996 0.0291 -0.0000
vn -0.9999 -0.0135 -0.0000
vn 0.9915 -0.1304 -0.0000
vn 0.0004 -0.0000 -1.0000
vt 0.937500 0.937500
vt 1.000000 0.937500
vt 1.000000 1.000000
vt 0.937500 1.000000
vt 0.437500 0.937500
vt 0.500000 0.937500
vt 0.500000 1.000000
vt 0.437500 1.000000
vt 0.437500 0.437500
vt 0.500000 0.437500
vt 0.500000 0.500000
vt 0.437500 0.500000
vt 0.937500 0.437500
vt 1.000000 0.437500
vt 1.000000 0.500000
vt 0.937500 0.500000
vt 0.687500 0.437500
vt 0.750000 0.437500
vt 0.750000 0.500000
vt 0.687500 0.500000
vt 0.687500 0.187500
vt 0.750000 0.187500
vt 0.750000 0.250000
vt 0.687500 0.250000
vt 0.937500 0.187500
vt 1.000000 0.187500
vt 1.000000 0.250000
vt 0.937500 0.250000
vt 0.187500 0.437500
vt 0.250000 0.437500
vt 0.250000 0.500000
vt 0.187500 0.500000
vt 0.187500 0.187500
vt 0.250000 0.187500
vt 0.250000 0.250000
vt 0.187500 0.250000
vt 0.437500 0.187500
vt 0.500000 0.187500
vt 0.500000 0.250000
vt 0.437500 0.250000
vt 0.187500 0.937500
vt 0.250000 0.937500
vt 0.250000 1.000000
vt 0.187500 1.000000
vt 0.187500 0.687500
vt 0.250000 0.687500
vt 0.250000 0.750000
vt 0.187500 0.750000
vt 0.437500 0.687500
vt 0.500000 0.687500
vt 0.500000 0.750000
vt 0.437500 0.750000
vt 0.687500 0.937500
vt 0.750000 0.937500
vt 0.750000 1.000000
vt 0.687500 1.000000
vt 0.687500 0.687500
vt 0.750000 0.687500
vt 0.750000 0.750000
vt 0.687500 0.750000
vt 0.937500 0.687500
vt 1.000000 0.687500
vt 1.000000 0.750000
vt 0.937500 0.750000
vt 0.812500 0.687500
vt 0.875000 0.687500
vt 0.875000 0.750000
vt 0.812500 0.750000
vt 0.812500 0.562500
vt 0.875000 0.562500
vt 0.875000 0.625000
vt 0.812500 0.625000
vt 0.937500 0.562500
vt 1.000000 0.562500
vt 1.000000 0.625000
vt 0.937500 0.625000
vt 0.562500 0.687500
vt 0.625000 0.687500
vt 0.625000 0.750000
vt 0.562500 0.750000
vt 0.562500 0.562500
vt 0.625000 0.562500
vt 0.625000 0.625000
vt 0.562500 0.625000
vt 0.687500 0.562500
vt 0.750000 0.562500
vt 0.750000 0.625000
vt 0.687500 0.625000
vt 0.562500 0.937500
vt 0.625000 0.937500
vt 0.625000 1.000000
vt 0.562500 1.000000
vt 0.562500 0.812500
vt 0.625000 0.812500
vt 0.625000 0.875000
vt 0.562500 0.875000
vt 0.687500 0.812500
vt 0.750000 0.812500
vt 0.750000 0.875000
vt 0.687500 0.875000
vt 0.312500 0.687500
vt 0.375000 0.687500
vt 0.375000 0.750000
vt 0.312500 0.750000
vt 0.312500 0.562500
vt 0.375000 0.562500
vt 0.375000 0.625000
vt 0.312500 0.625000
vt 0.437500 0.562500
vt 0.500000 0.562500
vt 0.500000 0.625000
vt 0.437500 0.625000
vt 0.062500 0.687500
vt 0.125000 0.687500
vt 0.125000 0.750000
vt 0.062500 0.750000
vt 0.062500 0.562500
vt 0.125000 0.562500
vt 0.125000 0.625000
vt 0.062500 0.625000
vt 0.187500 0.562500
vt 0.250000 0.562500
vt 0.250000 0.625000
vt 0.187500 0.625000
vt 0.062500 0.937500
vt 0.125000 0.937500
vt 0.125000 1.000000
vt 0.062500 1.000000
vt 0.062500 0.812500
vt 0.125000 0.812500
vt 0.125000 0.875000
vt 0.062500 0.875000
vt 0.187500 0.812500
vt 0.250000 0.812500
vt 0.250000 0.875000
vt 0.187500 0.875000
vt 0.312500 0.187500
vt 0.375000 0.187500
vt 0.375000 0.250000
vt 0.312500 0.250000
vt 0.312500 0.062500
vt 0.375000 0.062500
vt 0.375000 0.125000
vt 0.312500 0.125000
vt 0.437500 0.062500
vt 0.500000 0.062500
vt 0.500000 0.125000
vt 0.437500 0.125000
vt 0.062500 0.187500
vt 0.125000 0.187500
vt 0.125000 0.250000
vt 0.062500 0.250000
vt 0.062500 0.062500
vt 0.125000 0.062500
vt 0.125000 0.125000
vt 0.062500 0.125000
vt 0.187500 0.062500
vt 0.250000 0.062500
vt 0.250000 0.125000
vt 0.187500 0.125000
vt 0.062500 0.437500
vt 0.125000 0.437500
vt 0.125000 0.500000
vt 0.062500 0.500000
vt 0.062500 0.312500
vt 0.125000 0.312500
vt 0.125000 0.375000
vt 0.062500 0.375000
vt 0.187500 0.312500
vt 0.250000 0.312500
vt 0.250000 0.375000
vt 0.187500 0.375000
vt 0.812500 0.187500
vt 0.875000 0.187500
vt 0.875000 0.250000
vt 0.812500 0.250000
vt 0.812500 0.062500
vt 0.875000 0.062500
vt 0.875000 0.125000
vt 0.812500 0.125000
vt 0.937500 0.062500
vt 1.000000 0.062500
vt 1.000000 0.125000
vt 0.937500 0.125000
vt 0.562500 0.187500
vt 0.625000 0.187500
vt 0.625000 0.250000
vt 0.562500 0.250000
vt 0.562500 0.062500
vt 0.625000 0.062500
vt 0.625000 0.125000
vt 0.562500 0.125000
vt 0.687500 0.062500
vt 0.750000 0.062500
vt 0.750000 0.125000
vt 0.687500 0.125000
vt 0.562500 0.437500
vt 0.625000 0.437500
vt 0.625000 0.500000
vt 0.562500 0.500000
vt 0.562500 0.312500
vt 0.625000 0.312500
vt 0.625000 0.375000
vt 0.562500 0.375000
vt 0.687500 0.312500
vt 0.750000 0.312500
vt 0.750000 0.375000
vt 0.687500 0.375000
vt 0.812500 0.437500
vt 0.875000 0.437500
vt 0.875000 0.500000
vt 0.812500 0.500000
vt 0.812500 0.312500
vt 0.875000 0.312500
vt 0.875000 0.375000
vt 0.812500 0.375000
vt 0.937500 0.312500
vt 1.000000 0.312500
vt 1.000000 0.375000
vt 0.937500 0.375000
vt 0.312500 0.437500
vt 0.375000 0.437500
vt 0.375000 0.500000
vt 0.312500 0.500000
vt 0.312500 0.312500
vt 0.375000 0.312500
vt 0.375000 0.375000
vt 0.312500 0.375000
vt 0.437500 0.312500
vt 0.500000 0.312500
vt 0.500000 0.375000
vt 0.437500 0.375000
vt 0.312500 0.937500
vt 0.375000 0.937500
vt 0.375000 1.000000
vt 0.312500 1.000000
vt 0.312500 0.812500
vt 0.375000 0.812500
vt 0.375000 0.875000
vt 0.312500 0.875000
vt 0.437500 0.812500
vt 0.500000 0.812500
vt 0.500000 0.875000
vt 0.437500 0.875000
vt 0.812500 0.937500
vt 0.875000 0.937500
vt 0.875000 1.000000
vt 0.812500 1.000000
vt 0.812500 0.812500
vt 0.875000 0.812500
vt 0.875000 0.875000
vt 0.812500 0.875000
vt 0.937500 0.812500
vt 1.000000 0.812500
vt 1.000000 0.875000
vt 0.937500 0.875000
vt 0.625000 0.000000
vt 0.687500 0.000000
vt 0.750000 0.000000
vt 0.500000 0.000000
vt 0.562500 0.000000
vt 0.875000 0.000000
vt 0.937500 0.000000
vt 1.000000 0.000000
vt 0.812500 0.000000
vt 0.000000 0.312500
vt 0.000000 0.375000
vt 0.000000 0.250000
vt 0.000000 0.437500
vt 0.000000 0.500000
vt 0.125000 0.000000
vt 0.187500 0.000000
vt 0.250000 0.000000
vt 0.000000 0.062500
vt 0.000000 0.125000
vt 0.000000 0.000000
vt 0.062500 0.000000
vt 0.000000 0.187500
vt 0.375000 0.000000
vt 0.437500 0.000000
vt 0.312500 0.000000
vt 0.000000 0.812500
vt 0.000000 0.875000
vt 0.000000 0.750000
vt 0.000000 0.937500
vt 0.000000 1.000000
vt 0.000000 0.562500
vt 0.000000 0.625000
vt 0.000000 0.687500
s 0
f 353/1/1 116/2/1 4/3/1 201/4/1
f 352/5/2 130/6/2 12/7/2 193/8/2
f 351/9/3 131/10/3 17/11/3 208/12/3
f 350/13/4 124/14/4 11/15/4 209/16/4
f 349/17/5 154/18/5 37/19/5 189/20/5
f 348/21/6 155/22/6 38/23/6 212/24/6
f 347/25/7 144/26/7 28/27/7 213/28/7
f 346/29/8 158/30/8 36/31/8 188/32/8
f 345/33/9 159/34/9 39/35/9 216/36/9
f 344/37/10 151/38/10 35/39/10 217/40/10
f 343/41/11 162/42/11 21/43/11 173/44/11
f 342/45/12 163/46/12 40/47/12 220/48/12
f 341/49/13 150/50/13 34/51/13 221/52/13
f 340/53/14 166/54/14 29/55/14 181/56/14
f 339/57/15 167/58/15 41/59/15 224/60/15
f 338/61/16 136/62/16 20/63/16 225/64/16
f 337/65/17 226/66/17 97/67/17 169/68/17
f 336/69/18 227/70/18 98/71/18 228/72/18
f 335/73/19 192/74/19 64/75/19 229/76/19
f 334/77/20 230/78/20 96/79/20 168/80/20
f 333/81/13 231/82/13 99/83/13 232/84/13
f 332/85/21 223/86/21 95/87/21 233/88/21
f 331/89/22 234/90/22 53/91/22 125/92/22
f 330/93/23 235/94/23 100/95/23 236/96/23
f 329/97/24 222/98/24 94/99/24 237/100/24
f 328/101/25 238/102/25 93/103/25 165/104/25
f 327/105/26 239/106/26 101/107/26 240/108/26
f 326/109/27 206/110/27 78/111/27 241/112/27
f 325/113/28 242/114/28 92/115/28 164/116/28
f 324/117/29 243/118/29 102/119/29 244/120/29
f 323/121/30 219/122/30 91/123/30 245/124/30
f 322/125/31 246/126/31 45/127/31 117/128/31
f 321/129/32 247/130/32 103/131/32 248/132/32
f 320/133/33 218/134/33 90/135/33 249/136/33
f 319/137/34 250/138/34 89/139/34 161/140/34
f 318/141/35 251/142/35 104/143/35 252/144/35
f 317/145/36 207/146/36 79/147/36 253/148/36
f 316/149/37 254/150/37 88/151/37 160/152/37
f 315/153/38 255/154/38 105/155/38 256/156/38
f 314/157/39 215/158/39 87/159/39 257/160/39
f 313/161/40 258/162/40 60/163/40 132/164/40
f 312/165/41 259/166/41 106/167/41 260/168/41
f 311/169/42 214/170/42 86/171/42 261/172/42
f 310/173/43 262/174/43 85/175/43 157/176/43
f 309/177/44 263/178/44 107/179/44 264/180/44
f 308/181/45 200/182/45 72/183/45 265/184/45
f 307/185/46 266/186/46 84/187/46 156/188/46
f 306/189/47 267/190/47 108/191/47 268/192/47
f 305/193/48 211/194/48 83/195/48 269/196/48
f 304/197/49 270/198/49 61/199/49 133/200/49
f 303/201/50 271/202/50 109/203/50 272/204/50
f 302/205/51 210/206/51 82/207/51 273/208/51
f 301/209/52 274/210/52 81/211/52 153/212/52
f 300/213/53 275/214/53 110/215/53 276/216/53
f 299/217/45 180/218/45 52/219/45 277/220/45
f 298/221/54 278/222/54 80/223/54 152/224/54
f 297/225/55 279/226/55 111/227/55 280/228/55
f 296/229/56 187/230/56 59/231/56 281/232/56
f 295/233/57 282/234/57 65/235/57 137/236/57
f 294/237/58 283/238/58 112/239/58 284/240/58
f 293/241/59 186/242/59 58/243/59 285/244/59
f 292/245/60 286/246/60 73/247/60 145/248/60
f 291/249/61 287/250/61 113/251/61 288/252/61
f 290/253/62 172/254/62 44/255/62 289/256/62
f 287/250/63 290/253/63 289/256/63 113/251/63
f 97/67/64 225/64/64 290/253/64 287/250/64
f 225/64/65 20/63/65 172/254/65 290/253/65
f 222/98/66 291/249/66 288/252/66 94/99/66
f 41/59/67 169/68/67 291/249/67 222/98/67
f 169/68/68 97/67/68 287/250/68 291/249/68
f 166/54/69 292/245/69 145/248/69 29/55/69
f 94/99/70 288/252/70 292/245/70 166/54/70
f 288/252/71 113/251/71 286/246/71 292/245/71
f 283/238/13 293/241/13 285/244/13 112/239/13
f 93/103/13 221/52/13 293/241/13 283/238/13
f 221/52/72 34/51/72 186/242/72 293/241/72
f 218/134/73 294/237/73 284/240/73 90/135/73
f 40/47/74 165/104/74 294/237/74 218/134/74
f 165/104/75 93/103/75 283/238/75 294/237/75
f 162/42/76 295/233/76 137/236/76 21/43/76
f 90/135/77 284/240/77 295/233/77 162/42/77
f 284/240/78 112/239/78 282/234/78 295/233/78
f 279/226/79 296/229/79 281/232/79 111/227/79
f 89/139/80 217/40/80 296/229/80 279/226/80
f 217/40/81 35/39/81 187/230/81 296/229/81
f 214/170/82 297/225/82 280/228/82 86/171/82
f 39/35/83 161/140/83 297/225/83 214/170/83
f 161/140/84 89/139/84 279/226/84 297/225/84
f 158/30/85 298/221/85 152/224/85 36/31/85
f 86/171/86 280/228/86 298/221/86 158/30/86
f 280/228/87 111/227/87 278/222/87 298/221/87
f 275/214/88 299/217/88 277/220/88 110/215/88
f 85/175/89 213/28/89 299/217/89 275/214/89
f 213/28/45 28/27/45 180/218/45 299/217/45
f 210/206/90 300/213/90 276/216/90 82/207/90
f 38/23/91 157/176/91 300/213/91 210/206/91
f 157/176/92 85/175/92 275/214/92 300/213/92
f 154/18/93 301/209/93 153/212/93 37/19/93
f 82/207/94 276/216/94 301/209/94 154/18/94
f 276/216/95 110/215/95 274/210/95 301/209/95
f 271/202/96 302/205/96 273/208/96 109/203/96
f 84/187/97 212/24/97 302/205/97 271/202/97
f 212/24/98 38/23/98 210/206/98 302/205/98
f 187/230/99 303/201/99 272/204/99 59/231/99
f 35/39/100 156/188/100 303/201/100 187/230/100
f 156/188/101 84/187/101 271/202/101 303/201/101
f 131/10/102 304/197/102 133/200/102 17/11/102
f 59/231/103 272/204/103 304/197/103 131/10/103
f 272/204/104 109/203/104 270/198/104 304/197/104
f 267/190/105 305/193/105 269/196/105 108/191/105
f 63/257/106 135/258/106 305/193/106 267/190/106
f 135/258/107 19/259/107 211/194/107 305/193/107
f 207/146/108 306/189/108 268/192/108 79/147/108
f 10/260/13 191/261/13 306/189/13 207/146/13
f 191/261/13 63/257/13 267/190/13 306/189/13
f 151/38/109 307/185/109 156/188/109 35/39/109
f 79/147/110 268/192/110 307/185/110 151/38/110
f 268/192/111 108/191/111 266/186/111 307/185/111
f 263/178/112 308/181/112 265/184/112 107/179/112
f 43/262/113 115/263/113 308/181/113 263/178/113
f 115/263/114 2/264/114 200/182/114 308/181/114
f 211/194/115 309/177/115 264/180/115 83/195/115
f 19/259/116 171/265/116 309/177/116 211/194/116
f 171/265/117 43/262/117 263/178/117 309/177/117
f 155/22/118 310/173/118 157/176/118 38/23/118
f 83/195/119 264/180/119 310/173/119 155/22/119
f 264/180/120 107/179/120 262/174/120 310/173/120
f 259/166/121 311/169/121 261/172/121 106/167/121
f 88/151/122 216/36/122 311/169/122 259/166/122
f 216/36/123 39/35/123 214/170/123 311/169/123
f 134/266/124 312/165/124 260/168/124 62/267/124
f 18/268/124 160/152/124 312/165/124 134/266/124
f 160/152/125 88/151/125 259/166/125 312/165/125
f 190/269/124 313/161/124 132/164/124 9/270/124
f 62/267/124 260/168/124 313/161/124 190/269/124
f 260/168/126 106/167/126 258/162/126 313/161/126
f 255/154/127 314/157/127 257/160/127 105/155/127
f 71/271/128 143/272/128 314/157/128 255/154/128
f 143/272/129 27/273/129 215/158/129 314/157/129
f 114/274/124 315/153/124 256/156/124 42/275/124
f 1/276/130 199/277/130 315/153/130 114/274/130
f 199/277/131 71/271/131 255/154/131 315/153/131
f 170/278/124 316/149/124 160/152/124 18/268/124
f 42/275/124 256/156/124 316/149/124 170/278/124
f 256/156/132 105/155/132 254/150/132 316/149/132
f 251/142/133 317/145/133 253/148/133 104/143/133
f 51/279/134 123/280/134 317/145/134 251/142/134
f 123/280/135 10/260/135 207/146/135 317/145/135
f 215/158/136 318/141/136 252/144/136 87/159/136
f 27/273/137 179/281/137 318/141/137 215/158/137
f 179/281/138 51/279/138 251/142/138 318/141/138
f 159/34/139 319/137/139 161/140/139 39/35/139
f 87/159/140 252/144/140 319/137/140 159/34/140
f 252/144/141 104/143/141 250/138/141 319/137/141
f 247/130/142 320/133/142 249/136/142 103/131/142
f 92/115/143 220/48/143 320/133/143 247/130/143
f 220/48/144 40/47/144 218/134/144 320/133/144
f 142/282/145 321/129/145 248/132/145 70/283/145
f 26/284/146 164/116/146 321/129/146 142/282/146
f 164/116/147 92/115/147 247/130/147 321/129/147
f 198/285/148 322/125/148 117/128/148 3/286/148
f 70/283/124 248/132/124 322/125/124 198/285/124
f 248/132/149 103/131/149 246/126/149 322/125/149
f 243/118/150 323/121/150 245/124/150 102/119/150
f 60/163/151 188/32/151 323/121/151 243/118/151
f 188/32/152 36/31/152 219/122/152 323/121/152
f 122/287/153 324/117/153 244/120/153 50/288/153
f 9/270/124 132/164/124 324/117/124 122/287/124
f 132/164/154 60/163/154 243/118/154 324/117/154
f 178/289/155 325/113/155 164/116/155 26/284/155
f 50/288/156 244/120/156 325/113/156 178/289/156
f 244/120/157 102/119/157 242/114/157 325/113/157
f 239/106/158 326/109/158 241/112/158 101/107/158
f 80/223/159 208/12/159 326/109/159 239/106/159
f 208/12/160 17/11/160 206/110/160 326/109/160
f 219/122/161 327/105/161 240/108/161 91/123/161
f 36/31/162 152/224/162 327/105/162 219/122/162
f 152/224/163 80/223/163 239/106/163 327/105/163
f 163/46/164 328/101/164 165/104/164 40/47/164
f 91/123/165 240/108/165 328/101/165 163/46/165
f 240/108/166 101/107/166 238/102/166 328/101/166
f 235/94/167 329/97/167 237/100/167 100/95/167
f 96/79/168 224/60/168 329/97/168 235/94/168
f 224/60/169 41/59/169 222/98/169 329/97/169
f 186/242/170 330/93/170 236/96/170 58/243/170
f 34/51/171 168/80/171 330/93/171 186/242/171
f 168/80/172 96/79/172 235/94/172 330/93/172
f 130/6/173 331/89/173 125/92/173 12/7/173
f 58/243/174 236/96/174 331/89/174 130/6/174
f 236/96/175 100/95/175 234/90/175 331/89/175
f 231/82/176 332/85/176 233/88/176 99/83/176
f 61/199/177 189/20/177 332/85/177 231/82/177
f 189/20/178 37/19/178 223/86/178 332/85/178
f 206/110/13 333/81/13 232/84/13 78/111/13
f 17/11/179 133/200/179 333/81/179 206/110/179
f 133/200/13 61/199/13 231/82/13 333/81/13
f 150/50/180 334/77/180 168/80/180 34/51/180
f 78/111/72 232/84/72 334/77/72 150/50/72
f 232/84/181 99/83/181 230/78/181 334/77/181
f 227/70/182 335/73/182 229/76/182 98/71/182
f 81/211/183 209/16/183 335/73/183 227/70/183
f 209/16/184 11/15/184 192/74/184 335/73/184
f 223/86/185 336/69/185 228/72/185 95/87/185
f 37/19/186 153/212/186 336/69/186 223/86/186
f 153/212/187 81/211/187 227/70/187 336/69/187
f 167/58/188 337/65/188 169/68/188 41/59/188
f 95/87/189 228/72/189 337/65/189 167/58/189
f 228/72/190 98/71/190 226/66/190 337/65/190
f 226/66/191 338/61/191 225/64/191 97/67/191
f 98/71/192 229/76/192 338/61/192 226/66/192
f 229/76/193 64/75/193 136/62/193 338/61/193
f 230/78/194 339/57/194 224/60/194 96/79/194
f 99/83/195 233/88/195 339/57/195 230/78/195
f 233/88/196 95/87/196 167/58/196 339/57/196
f 234/90/197 340/53/197 181/56/197 53/91/197
f 100/95/198 237/100/198 340/53/198 234/90/198
f 237/100/199 94/99/199 166/54/199 340/53/199
f 238/102/200 341/49/200 221/52/200 93/103/200
f 101/107/201 241/112/201 341/49/201 238/102/201
f 241/112/202 78/111/202 150/50/202 341/49/202
f 242/114/203 342/45/203 220/48/203 92/115/203
f 102/119/204 245/124/204 342/45/204 242/114/204
f 245/124/205 91/123/205 163/46/205 342/45/205
f 246/126/206 343/41/206 173/44/206 45/127/206
f 103/131/207 249/136/207 343/41/207 246/126/207
f 249/136/208 90/135/208 162/42/208 343/41/208
f 250/138/209 344/37/209 217/40/209 89/139/209
f 104/143/210 253/148/210 344/37/210 250/138/210
f 253/148/211 79/147/211 151/38/211 344/37/211
f 254/150/212 345/33/212 216/36/212 88/151/212
f 105/155/213 257/160/213 345/33/213 254/150/213
f 257/160/214 87/159/214 159/34/214 345/33/214
f 258/162/215 346/29/215 188/32/215 60/163/215
f 106/167/216 261/172/216 346/29/216 258/162/216
f 261/172/217 86/171/217 158/30/217 346/29/217
f 262/174/218 347/25/218 213/28/218 85/175/218
f 107/179/219 265/184/219 347/25/219 262/174/219
f 265/184/220 72/183/220 144/26/220 347/25/220
f 266/186/221 348/21/221 212/24/221 84/187/221
f 108/191/222 269/196/222 348/21/222 266/186/222
f 269/196/223 83/195/223 155/22/223 348/21/223
f 270/198/224 349/17/224 189/20/224 61/199/224
f 109/203/225 273/208/225 349/17/225 270/198/225
f 273/208/226 82/207/226 154/18/226 349/17/226
f 274/210/227 350/13/227 209/16/227 81/211/227
f 110/215/228 277/220/228 350/13/228 274/210/228
f 277/220/45 52/219/45 124/14/45 350/13/45
f 278/222/229 351/9/229 208/12/229 80/223/229
f 111/227/230 281/232/230 351/9/230 278/222/230
f 281/232/231 59/231/231 131/10/231 351/9/231
f 282/234/13 352/5/13 193/8/13 65/235/13
f 112/239/13 285/244/13 352/5/13 282/234/13
f 285/244/232 58/243/232 130/6/232 352/5/232
f 286/246/31 353/1/31 201/4/31 73/247/31
f 113/251/233 289/256/233 353/1/233 286/246/233
f 289/256/234 44/255/234 116/2/234 353/1/234
f 52/219/235 180/218/235 408/218/235 376/219/235
f 135/258/236 63/257/236 379/257/236 395/258/236
f 53/91/237 181/56/237 409/56/237 377/91/237
f 136/62/235 64/75/235 380/75/235 396/62/235
f 137/236/238 65/235/238 381/235/238 397/236/238
f 190/269/239 9/270/239 358/270/239 410/269/239
f 191/261/236 10/260/236 359/260/236 411/261/236
f 192/74/235 11/15/235 360/15/235 412/74/235
f 114/274/239 42/275/239 370/275/239 386/274/239
f 193/8/240 12/7/240 361/7/240 413/8/240
f 115/263/236 43/262/236 371/262/236 387/263/236
f 18/268/239 134/266/239 394/266/239 362/268/239
f 142/282/239 70/283/239 382/283/239 398/282/239
f 116/2/235 44/255/235 372/255/235 388/2/235
f 19/259/236 135/258/236 395/258/236 363/259/236
f 143/272/236 71/271/236 383/271/236 399/272/236
f 117/128/238 45/127/238 373/127/238 389/128/238
f 20/63/235 136/62/235 396/62/235 364/63/235
f 170/278/239 18/268/239 362/268/239 402/278/239
f 144/26/235 72/183/235 384/183/235 400/26/235
f 21/43/238 137/236/238 397/236/238 365/43/238
f 171/265/236 19/259/236 363/259/236 403/265/236
f 62/267/239 190/269/239 410/269/239 378/267/239
f 145/248/238 73/247/238 385/247/238 401/248/238
f 198/285/239 3/286/239 356/286/239 414/285/239
f 172/254/235 20/63/235 364/63/235 404/254/235
f 63/257/236 191/261/236 411/261/236 379/257/236
f 199/277/236 1/276/236 354/276/236 415/277/236
f 173/44/238 21/43/238 365/43/238 405/44/238
f 64/75/235 192/74/235 412/74/235 380/75/235
f 200/182/235 2/264/235 355/264/235 416/182/235
f 1/276/239 114/274/239 386/274/239 354/276/239
f 65/235/238 193/8/238 413/8/238 381/235/238
f 122/287/239 50/288/239 374/288/239 390/287/239
f 201/4/238 4/3/238 357/3/238 417/4/238
f 2/264/236 115/263/236 387/263/236 355/264/236
f 123/280/241 51/279/241 375/279/241 391/280/241
f 26/284/239 142/282/239 398/282/239 366/284/239
f 4/3/235 116/2/235 388/2/235 357/3/235
f 124/14/235 52/219/235 376/219/235 392/14/235
f 27/273/236 143/272/236 399/272/236 367/273/236
f 3/286/238 117/128/238 389/128/238 356/286/238
f 42/275/239 170/278/239 402/278/239 370/275/239
f 125/92/242 53/91/242 377/91/242 393/92/242
f 28/27/235 144/26/235 400/26/235 368/27/235
f 178/289/239 26/284/239 366/284/239 406/289/239
f 43/262/236 171/265/236 403/265/236 371/262/236
f 29/55/238 145/248/238 401/248/238 369/55/238
f 179/281/243 27/273/243 367/273/243 407/281/243
f 70/283/239 198/285/239 414/285/239 382/283/239
f 44/255/235 172/254/235 404/254/235 372/255/235
f 180/218/235 28/27/235 368/27/235 408/218/235
f 71/271/236 199/277/236 415/277/236 383/271/236
f 45/127/238 173/44/238 405/44/238 373/127/238
f 181/56/238 29/55/238 369/55/238 409/56/238
f 72/183/235 200/182/235 416/182/235 384/183/235
f 9/270/239 122/287/239 390/287/239 358/270/239
f 73/247/238 201/4/238 417/4/238 385/247/238
f 10/260/244 123/280/244 391/280/244 359/260/244
f 11/15/235 124/14/235 392/14/235 360/15/235
f 12/7/245 125/92/245 393/92/245 361/7/245
f 50/288/239 178/289/239 406/289/239 374/288/239
f 51/279/246 179/281/246 407/281/246 375/279/246
f 134/266/239 62/267/239 378/267/239 394/266/239
f 386/274/247 370/275/247 402/278/247 362/268/247 394/266/247 378/267/247 410/269/247 358/270/247 390/287/247 374/288/247 406/289/247 366/284/247 398/282/247 382/283/247 414/285/247 356/286/247 389/128/247 373/127/247 405/44/247 365/43/247 397/236/247 381/235/247 413/8/247 361/7/247 393/92/247 377/91/247 409/56/247 369/55/247 401/248/247 385/247/247 417/4/247 357/3/247 388/2/247 372/255/247 404/254/247 364/63/247 396/62/247 380/75/247 412/74/247 360/15/247 392/14/247 376/219/247 408/218/247 368/27/247 400/26/247 384/183/247 416/182/247 355/264/247 387/263/247 371/262/247 403/265/247 363/259/247 395/258/247 379/257/247 411/261/247 359/260/247 391/280/247 375/279/247 407/281/247 367/273/247 399/272/247 383/271/247 415/277/247 354/276/247
l 118 5
l 119 6
l 120 7
l 121 8
l 126 13
l 127 14
l 128 15
l 129 16
l 138 22
l 139 23
l 140 24
l 141 25
l 146 30
l 147 31
l 148 32
l 149 33
l 174 46
l 175 47
l 176 48
l 177 49
l 182 54
l 183 55
l 184 56
l 185 57
l 194 66
l 195 67
l 196 68
l 197 69
l 202 74
l 203 75
l 204 76
l 205 77
l 46 118
l 47 119
l 48 120
l 49 121
l 54 126
l 55 127
l 56 128
l 57 129
l 66 138
l 67 139
l 68 140
l 69 141
l 74 146
l 75 147
l 76 148
l 77 149
l 22 174
l 23 175
l 24 176
l 25 177
l 30 182
l 31 183
l 32 184
l 33 185
l 13 194
l 14 195
l 15 196
l 16 197
l 1 202
l 2 203
l 3 204
l 4 205
